<mxfile host="app.diagrams.net" agent="Mozilla/5.0 (Windows NT 10.0; Win64; x64) AppleWebKit/537.36 (KHTML, like Gecko) Chrome/131.0.0.0 Safari/537.36" version="26.0.4">
  <diagram id="oqoZIZ5gv7_le0XgSowj" name="Page-1">
    <mxGraphModel dx="1059" dy="504" grid="1" gridSize="10" guides="1" tooltips="1" connect="1" arrows="1" fold="1" page="1" pageScale="1" pageWidth="827" pageHeight="1169" math="0" shadow="0">
      <root>
        <mxCell id="0" />
        <mxCell id="1" parent="0" />
        <mxCell id="-DL0ndcE84ehB5X7nfEx-9" style="edgeStyle=orthogonalEdgeStyle;rounded=0;hachureGap=4;orthogonalLoop=1;jettySize=auto;html=1;exitX=0.5;exitY=1;exitDx=0;exitDy=0;entryX=0.5;entryY=0;entryDx=0;entryDy=0;fontFamily=Architects Daughter;fontSource=https%3A%2F%2Ffonts.googleapis.com%2Fcss%3Ffamily%3DArchitects%2BDaughter;" edge="1" parent="1" source="-DL0ndcE84ehB5X7nfEx-1" target="-DL0ndcE84ehB5X7nfEx-2">
          <mxGeometry relative="1" as="geometry" />
        </mxCell>
        <mxCell id="-DL0ndcE84ehB5X7nfEx-1" value="" style="ellipse;whiteSpace=wrap;html=1;hachureGap=4;fontFamily=Architects Daughter;fontSource=https%3A%2F%2Ffonts.googleapis.com%2Fcss%3Ffamily%3DArchitects%2BDaughter;" vertex="1" parent="1">
          <mxGeometry x="320" y="70" width="140" height="80" as="geometry" />
        </mxCell>
        <mxCell id="-DL0ndcE84ehB5X7nfEx-10" style="edgeStyle=orthogonalEdgeStyle;rounded=0;hachureGap=4;orthogonalLoop=1;jettySize=auto;html=1;exitX=0.5;exitY=1;exitDx=0;exitDy=0;entryX=0.5;entryY=0;entryDx=0;entryDy=0;fontFamily=Architects Daughter;fontSource=https%3A%2F%2Ffonts.googleapis.com%2Fcss%3Ffamily%3DArchitects%2BDaughter;" edge="1" parent="1" source="-DL0ndcE84ehB5X7nfEx-2" target="-DL0ndcE84ehB5X7nfEx-3">
          <mxGeometry relative="1" as="geometry" />
        </mxCell>
        <mxCell id="-DL0ndcE84ehB5X7nfEx-16" style="edgeStyle=orthogonalEdgeStyle;rounded=0;hachureGap=4;orthogonalLoop=1;jettySize=auto;html=1;exitX=1;exitY=0.5;exitDx=0;exitDy=0;entryX=0.5;entryY=0;entryDx=0;entryDy=0;fontFamily=Architects Daughter;fontSource=https%3A%2F%2Ffonts.googleapis.com%2Fcss%3Ffamily%3DArchitects%2BDaughter;" edge="1" parent="1" source="-DL0ndcE84ehB5X7nfEx-2" target="-DL0ndcE84ehB5X7nfEx-8">
          <mxGeometry relative="1" as="geometry" />
        </mxCell>
        <mxCell id="-DL0ndcE84ehB5X7nfEx-2" value="" style="rhombus;whiteSpace=wrap;html=1;hachureGap=4;fontFamily=Architects Daughter;fontSource=https%3A%2F%2Ffonts.googleapis.com%2Fcss%3Ffamily%3DArchitects%2BDaughter;" vertex="1" parent="1">
          <mxGeometry x="310" y="210" width="160" height="80" as="geometry" />
        </mxCell>
        <mxCell id="-DL0ndcE84ehB5X7nfEx-11" style="edgeStyle=orthogonalEdgeStyle;rounded=0;hachureGap=4;orthogonalLoop=1;jettySize=auto;html=1;exitX=0.5;exitY=1;exitDx=0;exitDy=0;entryX=0.5;entryY=0;entryDx=0;entryDy=0;fontFamily=Architects Daughter;fontSource=https%3A%2F%2Ffonts.googleapis.com%2Fcss%3Ffamily%3DArchitects%2BDaughter;" edge="1" parent="1" source="-DL0ndcE84ehB5X7nfEx-3" target="-DL0ndcE84ehB5X7nfEx-4">
          <mxGeometry relative="1" as="geometry" />
        </mxCell>
        <mxCell id="-DL0ndcE84ehB5X7nfEx-3" value="" style="shape=parallelogram;perimeter=parallelogramPerimeter;whiteSpace=wrap;html=1;fixedSize=1;hachureGap=4;fontFamily=Architects Daughter;fontSource=https%3A%2F%2Ffonts.googleapis.com%2Fcss%3Ffamily%3DArchitects%2BDaughter;" vertex="1" parent="1">
          <mxGeometry x="310" y="350" width="160" height="70" as="geometry" />
        </mxCell>
        <mxCell id="-DL0ndcE84ehB5X7nfEx-12" style="edgeStyle=orthogonalEdgeStyle;rounded=0;sketch=1;hachureGap=4;jiggle=2;curveFitting=1;orthogonalLoop=1;jettySize=auto;html=1;exitX=0.5;exitY=1;exitDx=0;exitDy=0;fontFamily=Architects Daughter;fontSource=https%3A%2F%2Ffonts.googleapis.com%2Fcss%3Ffamily%3DArchitects%2BDaughter;" edge="1" parent="1" source="-DL0ndcE84ehB5X7nfEx-4" target="-DL0ndcE84ehB5X7nfEx-6">
          <mxGeometry relative="1" as="geometry" />
        </mxCell>
        <mxCell id="-DL0ndcE84ehB5X7nfEx-14" style="edgeStyle=orthogonalEdgeStyle;rounded=0;hachureGap=4;orthogonalLoop=1;jettySize=auto;html=1;exitX=0;exitY=0.5;exitDx=0;exitDy=0;entryX=0;entryY=0.5;entryDx=0;entryDy=0;fontFamily=Architects Daughter;fontSource=https%3A%2F%2Ffonts.googleapis.com%2Fcss%3Ffamily%3DArchitects%2BDaughter;" edge="1" parent="1" source="-DL0ndcE84ehB5X7nfEx-4" target="-DL0ndcE84ehB5X7nfEx-2">
          <mxGeometry relative="1" as="geometry">
            <Array as="points">
              <mxPoint x="130" y="515" />
              <mxPoint x="130" y="250" />
            </Array>
          </mxGeometry>
        </mxCell>
        <mxCell id="-DL0ndcE84ehB5X7nfEx-4" value="" style="rhombus;whiteSpace=wrap;html=1;hachureGap=4;fontFamily=Architects Daughter;fontSource=https%3A%2F%2Ffonts.googleapis.com%2Fcss%3Ffamily%3DArchitects%2BDaughter;" vertex="1" parent="1">
          <mxGeometry x="310" y="470" width="160" height="90" as="geometry" />
        </mxCell>
        <mxCell id="-DL0ndcE84ehB5X7nfEx-13" style="edgeStyle=orthogonalEdgeStyle;rounded=0;hachureGap=4;orthogonalLoop=1;jettySize=auto;html=1;exitX=0.5;exitY=1;exitDx=0;exitDy=0;fontFamily=Architects Daughter;fontSource=https%3A%2F%2Ffonts.googleapis.com%2Fcss%3Ffamily%3DArchitects%2BDaughter;" edge="1" parent="1" source="-DL0ndcE84ehB5X7nfEx-6" target="-DL0ndcE84ehB5X7nfEx-7">
          <mxGeometry relative="1" as="geometry" />
        </mxCell>
        <mxCell id="-DL0ndcE84ehB5X7nfEx-6" value="" style="shape=parallelogram;perimeter=parallelogramPerimeter;whiteSpace=wrap;html=1;fixedSize=1;hachureGap=4;fontFamily=Architects Daughter;fontSource=https%3A%2F%2Ffonts.googleapis.com%2Fcss%3Ffamily%3DArchitects%2BDaughter;" vertex="1" parent="1">
          <mxGeometry x="310" y="610" width="160" height="70" as="geometry" />
        </mxCell>
        <mxCell id="-DL0ndcE84ehB5X7nfEx-7" value="" style="ellipse;whiteSpace=wrap;html=1;hachureGap=4;fontFamily=Architects Daughter;fontSource=https%3A%2F%2Ffonts.googleapis.com%2Fcss%3Ffamily%3DArchitects%2BDaughter;" vertex="1" parent="1">
          <mxGeometry x="315" y="750" width="150" height="80" as="geometry" />
        </mxCell>
        <mxCell id="-DL0ndcE84ehB5X7nfEx-15" style="edgeStyle=orthogonalEdgeStyle;rounded=0;hachureGap=4;orthogonalLoop=1;jettySize=auto;html=1;exitX=0.5;exitY=1;exitDx=0;exitDy=0;entryX=1;entryY=0.5;entryDx=0;entryDy=0;fontFamily=Architects Daughter;fontSource=https%3A%2F%2Ffonts.googleapis.com%2Fcss%3Ffamily%3DArchitects%2BDaughter;" edge="1" parent="1" source="-DL0ndcE84ehB5X7nfEx-8" target="-DL0ndcE84ehB5X7nfEx-7">
          <mxGeometry relative="1" as="geometry" />
        </mxCell>
        <mxCell id="-DL0ndcE84ehB5X7nfEx-8" value="" style="rounded=0;whiteSpace=wrap;html=1;hachureGap=4;fontFamily=Architects Daughter;fontSource=https%3A%2F%2Ffonts.googleapis.com%2Fcss%3Ffamily%3DArchitects%2BDaughter;" vertex="1" parent="1">
          <mxGeometry x="640" y="390" width="160" height="80" as="geometry" />
        </mxCell>
        <mxCell id="-DL0ndcE84ehB5X7nfEx-17" value="&lt;b&gt;&lt;font style=&quot;font-size: 18px;&quot;&gt;Username&lt;/font&gt;&lt;/b&gt;&lt;div&gt;&lt;b&gt;&lt;font style=&quot;font-size: 18px;&quot;&gt;&amp;amp;&lt;/font&gt;&lt;/b&gt;&lt;/div&gt;&lt;div&gt;&lt;b&gt;&lt;font style=&quot;font-size: 18px;&quot;&gt;Password&lt;/font&gt;&lt;/b&gt;&lt;/div&gt;" style="text;html=1;align=center;verticalAlign=middle;whiteSpace=wrap;rounded=0;fontFamily=Architects Daughter;fontSource=https%3A%2F%2Ffonts.googleapis.com%2Fcss%3Ffamily%3DArchitects%2BDaughter;" vertex="1" parent="1">
          <mxGeometry x="360" y="370" width="60" height="30" as="geometry" />
        </mxCell>
        <mxCell id="-DL0ndcE84ehB5X7nfEx-18" value="&lt;b&gt;&lt;font style=&quot;font-size: 18px;&quot;&gt;Yes&lt;/font&gt;&lt;/b&gt;" style="text;html=1;align=center;verticalAlign=middle;whiteSpace=wrap;rounded=0;fontFamily=Architects Daughter;fontSource=https%3A%2F%2Ffonts.googleapis.com%2Fcss%3Ffamily%3DArchitects%2BDaughter;" vertex="1" parent="1">
          <mxGeometry x="390" y="570" width="60" height="30" as="geometry" />
        </mxCell>
        <mxCell id="-DL0ndcE84ehB5X7nfEx-19" value="&lt;b&gt;&lt;font style=&quot;font-size: 18px;&quot;&gt;Yes&lt;/font&gt;&lt;/b&gt;" style="text;html=1;align=center;verticalAlign=middle;whiteSpace=wrap;rounded=0;fontFamily=Architects Daughter;fontSource=https%3A%2F%2Ffonts.googleapis.com%2Fcss%3Ffamily%3DArchitects%2BDaughter;" vertex="1" parent="1">
          <mxGeometry x="560" y="210" width="60" height="30" as="geometry" />
        </mxCell>
        <mxCell id="-DL0ndcE84ehB5X7nfEx-20" value="&lt;b&gt;&lt;font style=&quot;font-size: 18px;&quot;&gt;Account Lock&lt;/font&gt;&lt;/b&gt;" style="text;html=1;align=center;verticalAlign=middle;whiteSpace=wrap;rounded=0;fontFamily=Architects Daughter;fontSource=https%3A%2F%2Ffonts.googleapis.com%2Fcss%3Ffamily%3DArchitects%2BDaughter;" vertex="1" parent="1">
          <mxGeometry x="640" y="390" width="160" height="90" as="geometry" />
        </mxCell>
        <mxCell id="-DL0ndcE84ehB5X7nfEx-21" value="&lt;b&gt;&lt;font style=&quot;font-size: 18px;&quot;&gt;End&lt;/font&gt;&lt;/b&gt;" style="text;html=1;align=center;verticalAlign=middle;whiteSpace=wrap;rounded=0;fontFamily=Architects Daughter;fontSource=https%3A%2F%2Ffonts.googleapis.com%2Fcss%3Ffamily%3DArchitects%2BDaughter;" vertex="1" parent="1">
          <mxGeometry x="360" y="775" width="60" height="30" as="geometry" />
        </mxCell>
        <mxCell id="-DL0ndcE84ehB5X7nfEx-22" value="&lt;b&gt;&lt;font style=&quot;font-size: 18px;&quot;&gt;Login&amp;nbsp;&lt;/font&gt;&lt;/b&gt;&lt;div&gt;&lt;b&gt;&lt;font style=&quot;font-size: 18px;&quot;&gt;Successful&lt;/font&gt;&lt;/b&gt;&lt;/div&gt;" style="text;html=1;align=center;verticalAlign=middle;whiteSpace=wrap;rounded=0;fontFamily=Architects Daughter;fontSource=https%3A%2F%2Ffonts.googleapis.com%2Fcss%3Ffamily%3DArchitects%2BDaughter;" vertex="1" parent="1">
          <mxGeometry x="320" y="610" width="130" height="70" as="geometry" />
        </mxCell>
        <mxCell id="-DL0ndcE84ehB5X7nfEx-23" value="&lt;b&gt;&lt;font style=&quot;font-size: 18px;&quot;&gt;Authorisation&lt;/font&gt;&lt;/b&gt;" style="text;html=1;align=center;verticalAlign=middle;whiteSpace=wrap;rounded=0;fontFamily=Architects Daughter;fontSource=https%3A%2F%2Ffonts.googleapis.com%2Fcss%3Ffamily%3DArchitects%2BDaughter;" vertex="1" parent="1">
          <mxGeometry x="360" y="500" width="60" height="30" as="geometry" />
        </mxCell>
        <mxCell id="-DL0ndcE84ehB5X7nfEx-24" value="&lt;div&gt;&lt;b style=&quot;background-color: transparent; color: light-dark(rgb(0, 0, 0), rgb(255, 255, 255));&quot;&gt;&lt;font style=&quot;font-size: 18px;&quot;&gt;3&lt;/font&gt;&lt;/b&gt;&lt;/div&gt;&lt;div&gt;&lt;b&gt;&lt;font style=&quot;font-size: 18px;&quot;&gt;Attempts&lt;/font&gt;&lt;/b&gt;&lt;/div&gt;" style="text;html=1;align=center;verticalAlign=middle;whiteSpace=wrap;rounded=0;fontFamily=Architects Daughter;fontSource=https%3A%2F%2Ffonts.googleapis.com%2Fcss%3Ffamily%3DArchitects%2BDaughter;" vertex="1" parent="1">
          <mxGeometry x="360" y="230" width="60" height="30" as="geometry" />
        </mxCell>
        <mxCell id="-DL0ndcE84ehB5X7nfEx-25" value="&lt;b&gt;&lt;font style=&quot;font-size: 18px;&quot;&gt;Start&lt;/font&gt;&lt;/b&gt;" style="text;html=1;align=center;verticalAlign=middle;whiteSpace=wrap;rounded=0;fontFamily=Architects Daughter;fontSource=https%3A%2F%2Ffonts.googleapis.com%2Fcss%3Ffamily%3DArchitects%2BDaughter;" vertex="1" parent="1">
          <mxGeometry x="360" y="95" width="60" height="30" as="geometry" />
        </mxCell>
        <mxCell id="-DL0ndcE84ehB5X7nfEx-26" value="&lt;b&gt;&lt;font style=&quot;font-size: 18px;&quot;&gt;No&lt;/font&gt;&lt;/b&gt;" style="text;html=1;align=center;verticalAlign=middle;whiteSpace=wrap;rounded=0;fontFamily=Architects Daughter;fontSource=https%3A%2F%2Ffonts.googleapis.com%2Fcss%3Ffamily%3DArchitects%2BDaughter;" vertex="1" parent="1">
          <mxGeometry x="70" y="340" width="60" height="30" as="geometry" />
        </mxCell>
        <mxCell id="-DL0ndcE84ehB5X7nfEx-27" value="&lt;b&gt;&lt;font style=&quot;font-size: 18px;&quot;&gt;No&lt;/font&gt;&lt;/b&gt;" style="text;html=1;align=center;verticalAlign=middle;whiteSpace=wrap;rounded=0;fontFamily=Architects Daughter;fontSource=https%3A%2F%2Ffonts.googleapis.com%2Fcss%3Ffamily%3DArchitects%2BDaughter;" vertex="1" parent="1">
          <mxGeometry x="390" y="300" width="60" height="30" as="geometry" />
        </mxCell>
      </root>
    </mxGraphModel>
  </diagram>
</mxfile>
